<svg fill="none" height="100%" width="100%" viewBox="0 0 83 84" xmlns:xlink="http://www.w3.org/1999/xlink" xmlns="http://www.w3.org/2000/svg"><g transform="matrix(1,0,0,1,0,0)" id="i0"><g id="i1" transform="matrix(1,0,0,1,0,0)"><path fill="#000000" d="M31.178,8.98C35.425,10.004,36.647,37.478,36.604,40.64C36.592,41.528,36.604,43.224,36.604,43.224C37.847,42.659,38.637,42.386,39.943,42.016C41.755,34.064,46.414,10.67,58.006,17.18C59.694,18.128,56.709,36.194,53.994,45.995C58.3,48.634,62.078,53.663,64.005,58.261C64.646,59.79,65.652,62.607,66.49,63.799C69.402,67.942,73.15,70.504,74.603,75.616C75.731,79.583,75.736,83.474,73.744,87.198C76.037,86.24,78.308,86.181,80.5,85C86.12,82.342,78.837,91.344,63.718,94.845C48.599,98.346,33.122,97.078,18.058,93.958C14.48,93.217,10.614,92.846,7.432,90.925C6.049,90.09,4.538,88.579,5.708,86.901C6.942,85.196,9.452,84.751,11.4,84.39C11.343,75.06,14.764,69.442,18.042,61.09C18.174,60.755,17.86,58.111,17.804,57.497C16.715,46.087,12.441,10.169,31.178,8.98C31.178,8.98,31.178,8.98,31.178,8.98Z" /></g><g id="i2" transform="matrix(1,0,0,1,0,0)"><path fill="#ffffff" d="M30.148,12.326C33.314,12.326,34.247,42.169,34.158,45.249C28.882,51.791,33.947,47.571,38.379,45.933C43.536,44.028,49.654,46.054,53.847,49.255C57.553,52.042,60.237,55.831,61.98,60.165C62.646,61.821,63.341,63.703,64.266,65.239C67.375,69.868,72.064,72.807,72.663,78.759C73.251,84.598,71.03,89.078,64.962,90.299C62.071,90.881,59.528,91.544,56.552,91.948C57.993,89.622,58.135,87.027,56.898,84.624C56.59,83.923,56.135,83.056,56.178,82.266C56.236,81.2,57.2,80.717,57.584,79.438C58.217,77.328,57.584,76.484,56.232,78.807C54.758,81.34,52.668,81.392,50.198,80.283C44.078,77.75,46.188,80.705,51.103,82.249C53.876,82.977,55.602,84.199,55.97,87.221C56.248,89.508,55.429,90.573,54.121,92.285C44.206,93.07,35.834,92.768,25.96,91.073C23.528,90.656,19.651,90.088,17.575,88.792C17.471,88.597,17.377,88.398,17.293,88.195C14.448,81.313,18.504,72.8,21.194,66.471C23.117,61.946,23.23,63.075,22.692,58.009C22.511,56.386,22.361,54.76,22.242,53.132C21.425,42.305,20.357,28.036,24.284,17.723C25.578,14.325,27.404,12.537,30.148,12.326C30.148,12.326,30.148,12.326,30.148,12.326Z" /></g><g id="i3" transform="matrix(1,0,0,1,0,0)"><path fill="#ffffff" d="M56.318,18.518C57.795,19.225,52.594,41.975,51.734,44.548C49.36,42.947,45.671,42.048,42.87,41.74C44.077,35.542,48.35,14.704,56.318,18.518C56.318,18.518,56.318,18.518,56.318,18.518Z" /></g><g><g transform="translate(41.974,71.831)"><animateTransform repeatCount="indefinite" type="translate" attributeName="transform" dur="3.333s" begin="0s" calcMode="spline" values="41.974 71.831; 41.974 71.831; 41.97 72.3; 41.974 71.831; 41.974 71.831" keyTimes="0; 0.6; 0.72; 0.84; 1" keySplines="0 0 1 1; 0.934 0.001 0.36 1; 0.969 0.011 0.737 0.999; 0 0 1 1" fill="freeze" /><g transform="scale(1,1)"><animateTransform repeatCount="indefinite" type="scale" attributeName="transform" dur="3.333s" begin="0s" calcMode="spline" values="1 1; 1 1; 1 0.999; 1 0.997; 1 0.993; 1 0.987; 1 0.978; 1 0.964; 1 0.946; 1 0.919; 1 0.878; 1 0.808; 1 0.548; 1 0.315; 1 0.242; 1 0.198; 1 0.168; 1 0.146; 1 0.129; 1 0.117; 1 0.107; 1 0.101; 1 0.096; 1 0.092; 1 0.091; 1 0.09; 1 0.091; 1 0.092; 1 0.096; 1 0.1; 1 0.106; 1 0.114; 1 0.124; 1 0.137; 1 0.151; 1 0.169; 1 0.19; 1 0.215; 1 0.244; 1 0.28; 1 0.322; 1 0.374; 1 0.439; 1 0.521; 1 0.628; 1 0.761; 1 0.886; 1 0.96; 1 0.992; 1 1; 1 1" keyTimes="0; 0.6; 0.605; 0.61; 0.615; 0.62; 0.625; 0.63; 0.635; 0.64; 0.645; 0.65; 0.655; 0.66; 0.665; 0.67; 0.675; 0.68; 0.685; 0.69; 0.695; 0.7; 0.705; 0.71; 0.715; 0.72; 0.725; 0.73; 0.735; 0.74; 0.745; 0.75; 0.755; 0.76; 0.765; 0.77; 0.775; 0.78; 0.785; 0.79; 0.795; 0.8; 0.805; 0.81; 0.815; 0.82; 0.825; 0.83; 0.835; 0.84; 1" keySplines="0 0 1 1; 0 0 1 1; 0 0 1 1; 0 0 1 1; 0 0 1 1; 0 0 1 1; 0 0 1 1; 0 0 1 1; 0 0 1 1; 0 0 1 1; 0 0 1 1; 0 0 1 1; 0 0 1 1; 0 0 1 1; 0 0 1 1; 0 0 1 1; 0 0 1 1; 0 0 1 1; 0 0 1 1; 0 0 1 1; 0 0 1 1; 0 0 1 1; 0 0 1 1; 0 0 1 1; 0 0 1 1; 0 0 1 1; 0 0 1 1; 0 0 1 1; 0 0 1 1; 0 0 1 1; 0 0 1 1; 0 0 1 1; 0 0 1 1; 0 0 1 1; 0 0 1 1; 0 0 1 1; 0 0 1 1; 0 0 1 1; 0 0 1 1; 0 0 1 1; 0 0 1 1; 0 0 1 1; 0 0 1 1; 0 0 1 1; 0 0 1 1; 0 0 1 1; 0 0 1 1; 0 0 1 1; 0 0 1 1; 0 0 1 1" fill="freeze" /><g id="i4" transform="translate(-41.974,-71.831)"><path fill="#000000" d="M41.572,68.261C43.529,68.041,45.299,69.438,45.54,71.393C45.781,73.348,44.401,75.132,42.449,75.393C41.168,75.564,39.894,75.033,39.112,74.004C38.33,72.975,38.162,71.605,38.671,70.417C39.18,69.229,40.288,68.406,41.572,68.261C41.572,68.261,41.572,68.261,41.572,68.261Z" /></g></g></g></g><g><g transform="translate(57.501,70.2)"><animateTransform repeatCount="indefinite" type="translate" attributeName="transform" dur="3.333s" begin="0s" calcMode="spline" values="57.501 70.2; 57.501 70.2; 57.501 70.2; 57.501 70.203; 57.501 70.208; 57.501 70.215; 57.501 70.226; 57.501 70.24; 57.501 70.259; 57.501 70.282; 57.501 70.313; 57.501 70.351; 57.501 70.402; 57.501 70.47; 57.501 70.564; 57.501 70.707; 57.5 70.931; 57.5 71.16; 57.5 71.296; 57.5 71.375; 57.5 71.425; 57.5 71.458; 57.5 71.479; 57.5 71.492; 57.5 71.498; 57.5 71.5; 57.5 71.499; 57.5 71.496; 57.5 71.491; 57.5 71.484; 57.5 71.475; 57.5 71.464; 57.5 71.451; 57.5 71.434; 57.5 71.414; 57.5 71.39; 57.5 71.362; 57.5 71.329; 57.5 71.289; 57.5 71.242; 57.5 71.185; 57.5 71.116; 57.5 71.03; 57.5 70.919; 57.501 70.772; 57.501 70.577; 57.501 70.377; 57.501 70.26; 57.501 70.212; 57.501 70.2; 57.501 70.2" keyTimes="0; 0.6; 0.605; 0.61; 0.615; 0.62; 0.625; 0.63; 0.635; 0.64; 0.645; 0.65; 0.655; 0.66; 0.665; 0.67; 0.675; 0.68; 0.685; 0.69; 0.695; 0.7; 0.705; 0.71; 0.715; 0.72; 0.725; 0.73; 0.735; 0.74; 0.745; 0.75; 0.755; 0.76; 0.765; 0.77; 0.775; 0.78; 0.785; 0.79; 0.795; 0.8; 0.805; 0.81; 0.815; 0.82; 0.825; 0.83; 0.835; 0.84; 1" keySplines="0 0 1 1; 0 0 1 1; 0 0 1 1; 0 0 1 1; 0 0 1 1; 0 0 1 1; 0 0 1 1; 0 0 1 1; 0 0 1 1; 0 0 1 1; 0 0 1 1; 0 0 1 1; 0 0 1 1; 0 0 1 1; 0 0 1 1; 0 0 1 1; 0 0 1 1; 0 0 1 1; 0 0 1 1; 0 0 1 1; 0 0 1 1; 0 0 1 1; 0 0 1 1; 0 0 1 1; 0 0 1 1; 0 0 1 1; 0 0 1 1; 0 0 1 1; 0 0 1 1; 0 0 1 1; 0 0 1 1; 0 0 1 1; 0 0 1 1; 0 0 1 1; 0 0 1 1; 0 0 1 1; 0 0 1 1; 0 0 1 1; 0 0 1 1; 0 0 1 1; 0 0 1 1; 0 0 1 1; 0 0 1 1; 0 0 1 1; 0 0 1 1; 0 0 1 1; 0 0 1 1; 0 0 1 1; 0 0 1 1; 0 0 1 1" fill="freeze" /><g transform="scale(1,1)"><animateTransform repeatCount="indefinite" type="scale" attributeName="transform" dur="3.333s" begin="0s" calcMode="spline" values="1 1; 1 1; 1 0.09; 1 1; 1 1" keyTimes="0; 0.6; 0.72; 0.84; 1" keySplines="0 0 1 1; 0.934 0.006 0.021 0.999; 0.974 0.011 0.742 0.989; 0 0 1 1" fill="freeze" /><g id="i5" transform="translate(-57.501,-70.2)"><path fill="#000000" d="M56.569,67.121C58.28,66.603,60.085,67.58,60.588,69.295C61.091,71.01,60.099,72.806,58.379,73.294C56.68,73.776,54.911,72.798,54.414,71.104C53.917,69.41,54.879,67.633,56.569,67.121C56.569,67.121,56.569,67.121,56.569,67.121Z" /></g></g></g></g></g></svg>